<svg xmlns="http://www.w3.org/2000/svg" width="32" height="32" viewBox="0 0 32 32" shape-rendering="crispEdges">
  <!-- Penny: a cream lynx-point tabby with big blue-grey eyes, pink ears and a bell on her collar. -->
  <path fill="#4a2238" d="M0 0h32v32H0z"/>
  <path fill="#2a1f1c" d="M2 1h2v1h-2zM28 1h2v1h-2zM2 2h1v5h-1zM4 2h1v1h-1zM27 2h1v1h-1zM29 2h1v5h-1zM5 3h1v1h-1zM26 3h1v1h-1zM6 4h2v1h-2zM24 4h2v1h-2zM8 5h16v1h-16zM1 7h1v11h-1zM30 7h1v11h-1zM1 19h1v3h-1zM30 19h1v3h-1zM3 23h1v1h-1zM28 23h1v1h-1zM2 24h1v1h-1zM4 24h2v1h-2zM26 24h2v1h-2zM29 24h1v1h-1zM1 25h1v1h-1zM6 25h2v1h-2zM24 25h2v1h-2zM30 25h1v1h-1zM0 26h1v6h-1zM14 26h1v1h-1zM17 26h1v1h-1zM31 26h1v6h-1zM13 27h1v2h-1zM18 27h1v2h-1zM14 29h1v1h-1zM17 29h1v1h-1z"/>
  <path fill="#a8957f" d="M3 2h1v5h-1zM28 2h1v5h-1zM2 7h1v3h-1zM29 7h1v3h-1z"/>
  <path fill="#e8b2ae" d="M4 3h1v1h-1zM27 3h1v1h-1zM5 4h1v4h-1zM26 4h1v4h-1zM7 5h1v1h-1zM24 5h1v1h-1zM8 6h1v2h-1zM23 6h1v2h-1zM6 7h1v2h-1zM25 7h1v2h-1zM7 8h1v2h-1zM24 8h1v2h-1z"/>
  <path fill="#e7decd" d="M4 4h1v6h-1zM27 4h1v6h-1zM3 7h1v2h-1zM28 7h1v2h-1zM5 8h1v2h-1zM26 8h1v2h-1zM6 9h1v3h-1zM25 9h1v3h-1zM7 10h1v1h-1zM24 10h1v1h-1zM10 11h1v1h-1zM21 11h1v1h-1zM5 12h1v1h-1zM11 12h1v1h-1zM15 12h2v1h-2zM20 12h1v1h-1zM26 12h1v1h-1zM12 13h1v3h-1zM14 13h1v2h-1zM17 13h1v2h-1zM19 13h1v3h-1zM11 16h1v2h-1zM20 16h1v2h-1zM5 17h2v1h-2zM10 17h1v1h-1zM21 17h1v1h-1zM25 17h2v1h-2zM6 18h3v1h-3zM23 18h3v1h-3zM7 19h1v3h-1zM24 19h1v3h-1zM8 21h1v2h-1zM23 21h1v2h-1zM9 23h2v1h-2zM21 23h2v1h-2zM10 24h2v1h-2zM20 24h2v1h-2z"/>
  <path fill="#cf8f92" d="M6 5h1v2h-1zM25 5h1v2h-1zM7 6h1v2h-1zM24 6h1v2h-1z"/>
  <path fill="#d3c7b3" d="M9 6h3v2h-3zM13 6h1v11h-1zM18 6h1v11h-1zM20 6h3v2h-3zM15 7h2v5h-2zM8 8h2v2h-2zM11 8h1v3h-1zM20 8h1v3h-1zM22 8h2v2h-2zM3 9h1v5h-1zM28 9h1v5h-1zM2 10h1v4h-1zM4 10h2v2h-2zM8 10h1v1h-1zM10 10h1v1h-1zM12 10h1v3h-1zM19 10h1v3h-1zM21 10h1v1h-1zM23 10h1v1h-1zM26 10h2v2h-2zM29 10h1v4h-1zM14 11h1v2h-1zM17 11h1v2h-1zM4 12h1v4h-1zM27 12h1v4h-1zM2 15h2v1h-2zM28 15h2v1h-2zM5 16h1v1h-1zM26 16h1v1h-1zM2 17h3v1h-3zM12 17h1v1h-1zM19 17h1v1h-1zM27 17h3v1h-3zM3 18h3v1h-3zM26 18h3v1h-3zM2 19h1v3h-1zM5 19h2v5h-2zM25 19h2v5h-2zM29 19h1v3h-1zM3 20h2v1h-2zM27 20h2v1h-2zM3 22h2v1h-2zM7 22h1v3h-1zM24 22h1v3h-1zM27 22h2v1h-2zM4 23h1v1h-1zM8 23h1v2h-1zM23 23h1v2h-1zM27 23h1v1h-1zM3 24h1v4h-1zM6 24h1v1h-1zM9 24h1v1h-1zM22 24h1v1h-1zM25 24h1v1h-1zM28 24h1v4h-1zM2 25h1v5h-1zM4 25h2v3h-2zM26 25h2v3h-2zM29 25h1v5h-1zM1 26h1v4h-1zM6 26h1v2h-1zM25 26h1v2h-1zM30 26h1v4h-1zM5 28h1v3h-1zM26 28h1v3h-1zM3 29h2v1h-2zM27 29h2v1h-2zM4 30h1v2h-1zM27 30h1v2h-1zM1 31h3v1h-3zM28 31h3v1h-3z"/>
  <path fill="#a69580" d="M12 6h1v1h-1zM15 6h2v1h-2zM19 6h1v1h-1zM10 8h1v2h-1zM21 8h1v2h-1zM12 9h1v1h-1zM19 9h1v1h-1zM9 10h1v1h-1zM14 10h1v1h-1zM17 10h1v1h-1zM22 10h1v1h-1zM11 11h1v1h-1zM20 11h1v1h-1z"/>
  <path fill="#6a5a4d" d="M14 6h1v4h-1zM17 6h1v4h-1zM12 7h1v2h-1zM19 7h1v2h-1zM2 14h2v1h-2zM28 14h2v1h-2zM2 16h3v1h-3zM12 16h1v1h-1zM19 16h1v1h-1zM27 16h3v1h-3zM13 17h1v1h-1zM18 17h1v1h-1zM3 28h2v1h-2zM27 28h2v1h-2zM1 30h3v1h-3zM28 30h3v1h-3z"/>
  <path fill="#1c1918" d="M7 11h3v1h-3zM22 11h3v1h-3zM6 12h1v1h-1zM10 12h1v1h-1zM21 12h1v1h-1zM25 12h1v1h-1zM5 13h1v3h-1zM11 13h1v3h-1zM20 13h1v3h-1zM26 13h1v3h-1zM6 16h1v1h-1zM10 16h1v1h-1zM21 16h1v1h-1zM25 16h1v1h-1zM7 17h3v1h-3zM22 17h3v1h-3z"/>
  <path fill="#4f5f74" d="M7 12h3v1h-3zM22 12h3v1h-3zM6 13h1v3h-1zM10 13h1v3h-1zM21 13h1v3h-1zM25 13h1v3h-1z"/>
  <path fill="#ffffff" d="M7 13h1v1h-1zM22 13h1v1h-1zM14 27h1v1h-1z"/>
  <path fill="#12141a" d="M8 13h2v3h-2zM23 13h2v3h-2zM7 14h1v2h-1zM22 14h1v2h-1zM15 29h2v1h-2z"/>
  <path fill="#d6b386" d="M15 13h2v4h-2zM14 15h1v2h-1zM17 15h1v2h-1z"/>
  <path fill="#7e93a8" d="M7 16h3v1h-3zM22 16h3v1h-3z"/>
  <path fill="#d9a08e" d="M14 17h4v1h-4z"/>
  <path fill="#f6f3ec" d="M0 18h3v1h-3zM29 18h3v1h-3zM3 19h2v1h-2zM27 19h2v1h-2zM3 21h2v1h-2zM27 21h2v1h-2zM0 22h3v1h-3zM29 22h3v1h-3z"/>
  <path fill="#f3ede3" d="M9 18h6v1h-6zM17 18h6v1h-6zM8 19h4v2h-4zM13 19h2v1h-2zM17 19h2v1h-2zM20 19h4v2h-4zM12 20h1v5h-1zM15 20h2v5h-2zM19 20h1v5h-1zM9 21h3v2h-3zM13 21h2v4h-2zM17 21h2v4h-2zM20 21h3v2h-3zM11 23h1v1h-1zM20 23h1v1h-1z"/>
  <path fill="#a5675c" d="M15 18h2v1h-2z"/>
  <path fill="#9a8274" d="M12 19h1v1h-1zM15 19h2v1h-2zM19 19h1v1h-1zM13 20h2v1h-2zM17 20h2v1h-2z"/>
  <path fill="#262c48" d="M8 25h7v1h-7zM17 25h7v1h-7z"/>
  <path fill="#6c737e" d="M15 25h2v1h-2zM17 27h1v2h-1z"/>
  <path fill="#ece4dc" d="M7 26h7v1h-7zM18 26h7v1h-7zM7 27h6v5h-6zM19 27h6v5h-6zM6 28h1v4h-1zM25 28h1v4h-1zM13 29h1v3h-1zM18 29h1v3h-1zM14 30h1v1h-1zM17 30h1v1h-1zM5 31h1v1h-1zM26 31h1v1h-1z"/>
  <path fill="#bcc2ca" d="M15 26h2v3h-2zM14 28h1v1h-1z"/>
  <path fill="#c3c7cd" d="M15 30h1v2h-1zM14 31h1v1h-1z"/>
  <path fill="#878c94" d="M16 30h1v2h-1zM17 31h1v1h-1z"/>
</svg>
